<svg width="239" height="68" viewBox="0 0 239 68" fill="none" xmlns="http://www.w3.org/2000/svg">
<path d="M40.8486 0C55.0721 0.213088 67.8761 6.91343 72.3965 21.1191C77.6741 38.3557 72.7039 60.4696 53.5342 66.0811C50.8127 66.9097 48.1383 67.3839 45.5352 67.668V54.2197C52.0906 53.3436 57.2262 50.0049 58.8828 42.6416C60.1371 37.3618 60.2314 30.2828 58.8115 25.0029C56.7288 16.5031 49.2503 12.6435 40.8486 12.5488C27.7613 12.8331 21.5132 20.1488 21.8682 33.668C21.9865 45.9322 25.9388 52.8463 36.1387 54.2197V67.999H0V53.7461C4.89886 53.6987 9.77445 53.6038 14.626 54.4561C13.9634 53.7222 13.348 52.9409 12.8037 52.1123C6.88715 42.6891 5.84571 31.5846 9.18262 21.0723C13.6556 6.77165 26.5309 0.18947 40.8018 0H40.8486ZM131.439 46.3535C132.904 46.3535 134.176 46.6751 135.255 47.3184C136.334 47.9616 137.165 48.8826 137.749 50.0801C138.343 51.2774 138.64 52.7173 138.64 54.3994C138.64 55.9532 138.357 57.3241 137.793 58.5117C137.239 59.6892 136.422 60.6142 135.344 61.2871C134.275 61.9601 132.969 62.2969 131.425 62.2969C129.96 62.2969 128.683 61.9848 127.595 61.3613C126.506 60.728 125.66 59.8229 125.057 58.6455C124.463 57.4678 124.166 56.0521 124.166 54.3994C124.166 52.7962 124.458 51.3909 125.042 50.1836C125.626 48.9764 126.457 48.0362 127.535 47.3633C128.624 46.6904 129.925 46.3536 131.439 46.3535ZM186.485 46.3535C187.95 46.3535 189.142 46.5467 190.062 46.9326C190.983 47.3186 191.661 47.878 192.097 48.6104C192.532 49.3327 192.75 50.2084 192.75 51.2373V62H189.706L189.409 59.2393C188.865 60.3969 188.167 61.1983 187.316 61.6436C186.475 62.079 185.51 62.2968 184.422 62.2969C183.442 62.2969 182.561 62.1189 181.779 61.7627C181.007 61.3965 180.398 60.877 179.953 60.2041C179.518 59.5212 179.3 58.6945 179.3 57.7246C179.3 56.0324 179.909 54.7555 181.126 53.8945C182.353 53.0336 184.303 52.5836 186.975 52.5439L189.275 52.4844V51.4453C189.275 50.6339 189.034 50.0001 188.549 49.5449C188.074 49.0798 187.331 48.8524 186.321 48.8623C185.569 48.8723 184.887 49.0503 184.273 49.3965C183.66 49.7329 183.254 50.3021 183.056 51.1035H179.983C180.043 50.0547 180.344 49.1791 180.889 48.4766C181.443 47.764 182.2 47.2341 183.16 46.8877C184.12 46.5315 185.229 46.3535 186.485 46.3535ZM201.153 46.6357H204.583V49.2041H201.153L201.168 58.0068C201.168 58.462 201.217 58.7989 201.316 59.0166C201.425 59.2243 201.594 59.3624 201.821 59.4316C202.059 59.491 202.371 59.5205 202.757 59.5205H204.657V61.8066C204.449 61.8858 204.142 61.9553 203.736 62.0146C203.341 62.0839 202.811 62.1191 202.148 62.1191C200.931 62.1191 199.985 61.9602 199.312 61.6436C198.65 61.317 198.19 60.8564 197.933 60.2627C197.675 59.669 197.546 58.9618 197.546 58.1406V49.2041H195.053V46.6504H197.65L198.556 42.0928H201.153V46.6357ZM91.6504 62H88.043V40.5342H91.6504V62ZM104.457 46.4727C105.407 46.4727 106.288 46.6601 107.1 47.0361C107.921 47.4122 108.579 48.0012 109.074 48.8027C109.579 49.6043 109.831 50.6387 109.831 51.9053V62H106.209V52.3359C106.209 51.3267 105.932 50.5796 105.378 50.0947C104.824 49.5999 104.125 49.3525 103.284 49.3525C102.71 49.3526 102.166 49.4515 101.651 49.6494C101.137 49.8375 100.716 50.1296 100.39 50.5254C100.073 50.9112 99.9151 51.3959 99.915 51.9795V62H96.3076V46.6504H99.8408V48.8477C100.078 48.4518 100.4 48.0703 100.806 47.7041C101.221 47.338 101.731 47.041 102.335 46.8135C102.938 46.586 103.646 46.4727 104.457 46.4727ZM122.44 42.999H120.303C119.719 42.9991 119.318 43.1523 119.101 43.459C118.883 43.7559 118.774 44.226 118.774 44.8691V46.6504H122.292V49.2041H118.834V62H115.227V49.2041H112.198V46.6504H115.227V44.3643C115.227 43.1374 115.563 42.1923 116.235 41.5293C116.918 40.8663 117.903 40.5342 119.189 40.5342H122.426L122.44 42.999ZM150.123 46.3535C150.301 46.3535 150.474 46.364 150.643 46.3838C150.811 46.4036 150.935 46.4378 151.014 46.4873V49.9463C150.905 49.8968 150.761 49.8616 150.583 49.8418C150.415 49.822 150.266 49.8125 150.138 49.8125C149.395 49.7531 148.737 49.7826 148.163 49.9014C147.599 50.0201 147.119 50.2229 146.724 50.5098C146.338 50.7869 146.046 51.1437 145.848 51.5791C145.65 52.0046 145.551 52.5042 145.551 53.0781V62H141.943V46.6504H145.402V49.9756C145.65 49.2137 146.001 48.5656 146.456 48.0312C146.921 47.487 147.466 47.0712 148.089 46.7842C148.712 46.4972 149.391 46.3535 150.123 46.3535ZM171.183 46.3535C171.737 46.3535 172.306 46.443 172.89 46.6211C173.483 46.7992 174.029 47.0961 174.523 47.5117C175.018 47.9273 175.419 48.4965 175.726 49.2188C176.032 49.9312 176.186 50.8268 176.186 51.9053V62H172.578V52.3359C172.578 51.5741 172.445 50.9754 172.178 50.54C171.911 50.1046 171.564 49.7973 171.139 49.6191C170.723 49.4312 170.278 49.3379 169.803 49.3379C169.377 49.3379 168.932 49.4217 168.467 49.5898C168.012 49.758 167.62 50.0351 167.294 50.4209C166.977 50.8068 166.818 51.3265 166.818 51.9795V62H163.211V51.7568C163.211 51.2226 163.073 50.7771 162.796 50.4209C162.519 50.0647 162.168 49.7973 161.742 49.6191C161.327 49.4311 160.9 49.3379 160.465 49.3379C160.02 49.3379 159.565 49.4312 159.1 49.6191C158.644 49.8072 158.263 50.0945 157.956 50.4805C157.649 50.8663 157.496 51.3661 157.496 51.9795V62H153.889V46.6504H157.407V48.8477C157.853 48.1748 158.456 47.5905 159.218 47.0957C159.99 46.6009 160.97 46.3535 162.157 46.3535C162.701 46.3535 163.251 46.4478 163.805 46.6357C164.369 46.8238 164.889 47.1006 165.364 47.4668C165.849 47.8329 166.235 48.2888 166.521 48.833C167.006 48.1107 167.65 47.5169 168.451 47.0518C169.263 46.5867 170.173 46.3536 171.183 46.3535ZM211.509 62H208.05V46.6504H211.509V62ZM219.383 53.6123L225.751 46.6504H229.715L224.162 52.6475L229.996 62H226.33L221.877 54.8896L219.383 57.502V62H215.79V39.9404H219.383V53.6123ZM187.391 54.5186C186.46 54.5285 185.644 54.6274 184.941 54.8154C184.249 55.0035 183.709 55.3051 183.323 55.7207C182.937 56.1264 182.744 56.6707 182.744 57.3535C182.744 58.1353 183.016 58.749 183.561 59.1943C184.105 59.6298 184.783 59.8477 185.595 59.8477C186.04 59.8476 186.481 59.7687 186.916 59.6104C187.351 59.4422 187.742 59.2193 188.088 58.9424C188.444 58.6554 188.727 58.3385 188.935 57.9922C189.152 57.6458 189.265 57.2843 189.275 56.9082V54.4883L187.391 54.5186ZM131.439 49.0703C130.598 49.0704 129.901 49.293 129.347 49.7383C128.802 50.1737 128.396 50.7874 128.129 51.5791C127.862 52.3609 127.729 53.2668 127.729 54.2959C127.729 55.2261 127.847 56.092 128.085 56.8936C128.322 57.6852 128.714 58.3285 129.258 58.8232C129.802 59.308 130.529 59.5507 131.439 59.5508C132.271 59.5508 132.954 59.3233 133.488 58.8682C134.033 58.4129 134.438 57.7888 134.705 56.9971C134.972 56.2055 135.106 55.3052 135.106 54.2959C135.106 53.3559 134.987 52.4898 134.75 51.6982C134.512 50.9065 134.121 50.2729 133.577 49.7979C133.043 49.3129 132.33 49.0703 131.439 49.0703ZM211.568 43.9639H207.991V40.5498H211.568V43.9639ZM111.652 11.3535C113.117 11.3535 114.31 11.5467 115.23 11.9326C116.151 12.3186 116.828 12.8781 117.264 13.6104C117.699 14.3327 117.917 15.2082 117.917 16.2373V27H114.874L114.577 24.2393C114.033 25.3968 113.335 26.1982 112.484 26.6436C111.643 27.079 110.677 27.2969 109.589 27.2969C108.609 27.2968 107.729 27.1188 106.947 26.7627C106.175 26.3966 105.566 25.8769 105.121 25.2041C104.686 24.5212 104.468 23.6945 104.468 22.7246C104.468 21.0324 105.077 19.7555 106.294 18.8945C107.521 18.0337 109.471 17.5835 112.143 17.5439L114.443 17.4844V16.4453C114.443 15.6338 114.201 15.0001 113.716 14.5449C113.241 14.08 112.498 13.8524 111.489 13.8623C110.737 13.8722 110.054 14.0501 109.44 14.3965C108.827 14.7329 108.422 15.3022 108.224 16.1035H105.15C105.21 15.0547 105.512 14.1791 106.057 13.4766C106.611 12.7641 107.367 12.234 108.327 11.8877C109.287 11.5314 110.396 11.3535 111.652 11.3535ZM128.207 11.3535C129.404 11.3536 130.458 11.5915 131.368 12.0664C132.279 12.5414 133.006 13.1998 133.551 14.041C134.105 14.882 134.436 15.8368 134.545 16.9053H131.473C131.393 16.4402 131.22 15.9996 130.953 15.584C130.686 15.1586 130.324 14.8178 129.869 14.5605C129.424 14.2934 128.88 14.1592 128.236 14.1592C127.079 14.1592 126.143 14.5846 125.431 15.4355C124.718 16.2866 124.361 17.5932 124.361 19.3545C124.361 20.9775 124.698 22.2695 125.371 23.2295C126.054 24.1895 127.029 24.6689 128.296 24.6689C128.929 24.6689 129.474 24.531 129.929 24.2539C130.384 23.967 130.74 23.6156 130.997 23.2002C131.264 22.7746 131.433 22.3484 131.502 21.9229H134.501C134.412 22.962 134.09 23.8877 133.536 24.6992C132.982 25.5107 132.249 26.1491 131.339 26.6143C130.429 27.0694 129.385 27.2968 128.207 27.2969C126.802 27.2969 125.55 26.9904 124.451 26.377C123.363 25.7535 122.506 24.8525 121.883 23.6748C121.259 22.4873 120.947 21.0572 120.947 19.3848C120.947 17.7914 121.239 16.3957 121.823 15.1982C122.417 13.9909 123.253 13.0509 124.332 12.3779C125.421 11.6951 126.713 11.3535 128.207 11.3535ZM160.927 11.3535C162.718 11.3535 164.154 11.754 165.232 12.5557C166.321 13.3473 166.879 14.4807 166.909 15.9551H163.837C163.728 15.2923 163.416 14.7782 162.901 14.4121C162.387 14.0361 161.719 13.8477 160.897 13.8477C160.046 13.8477 159.349 14.0113 158.805 14.3379C158.26 14.6645 157.988 15.164 157.988 15.8369C157.988 16.302 158.191 16.6684 158.597 16.9355C159.012 17.2026 159.641 17.4302 160.481 17.6182L163.243 18.2861C164.035 18.4841 164.683 18.7514 165.188 19.0879C165.692 19.4244 166.083 19.7954 166.36 20.2012C166.647 20.597 166.845 21.0081 166.954 21.4336C167.073 21.849 167.132 22.2347 167.132 22.5908C167.132 23.5805 166.875 24.4272 166.36 25.1299C165.856 25.8225 165.138 26.3564 164.208 26.7324C163.288 27.1085 162.194 27.2969 160.927 27.2969C159.858 27.2968 158.844 27.1284 157.884 26.792C156.934 26.4456 156.133 25.9061 155.479 25.1738C154.836 24.4415 154.43 23.4967 154.262 22.3389H157.438C157.577 22.9029 157.82 23.3635 158.166 23.7197C158.522 24.0759 158.938 24.3377 159.413 24.5059C159.898 24.6642 160.398 24.7431 160.912 24.7432C161.832 24.7432 162.575 24.5852 163.139 24.2686C163.703 23.9519 163.985 23.4619 163.985 22.7988C163.985 22.314 163.826 21.9276 163.51 21.6406C163.203 21.3538 162.698 21.1367 161.996 20.9883L159.086 20.3203C157.78 20.0333 156.736 19.5575 155.954 18.8945C155.172 18.2315 154.777 17.2962 154.767 16.0889C154.757 15.1785 154.984 14.3668 155.449 13.6543C155.914 12.9419 156.607 12.3833 157.527 11.9775C158.448 11.5619 159.581 11.3536 160.927 11.3535ZM176.857 11.3535C178.055 11.3535 179.109 11.5914 180.02 12.0664C180.93 12.5414 181.658 13.1998 182.202 14.041C182.756 14.882 183.087 15.8368 183.196 16.9053H180.124C180.045 16.4402 179.872 15.9996 179.604 15.584C179.337 15.1586 178.976 14.8178 178.521 14.5605C178.075 14.2934 177.531 14.1592 176.888 14.1592C175.73 14.1592 174.795 14.5847 174.082 15.4355C173.37 16.2866 173.013 17.5932 173.013 19.3545C173.013 20.9775 173.35 22.2695 174.022 23.2295C174.705 24.1894 175.681 24.6689 176.947 24.6689C177.58 24.6689 178.125 24.531 178.58 24.2539C179.035 23.967 179.391 23.6156 179.648 23.2002C179.916 22.7746 180.084 22.3484 180.153 21.9229H183.152C183.063 22.9619 182.742 23.8877 182.188 24.6992C181.633 25.5107 180.901 26.1491 179.99 26.6143C179.08 27.0695 178.035 27.2969 176.857 27.2969C175.452 27.2968 174.201 26.9903 173.103 26.377C172.014 25.7535 171.158 24.8524 170.534 23.6748C169.911 22.4873 169.599 21.0572 169.599 19.3848C169.599 17.7914 169.891 16.3957 170.475 15.1982C171.068 13.991 171.905 13.0509 172.983 12.3779C174.072 11.6952 175.363 11.3536 176.857 11.3535ZM210.26 11.3535C211.724 11.3535 212.917 11.5468 213.837 11.9326C214.757 12.3186 215.436 12.878 215.871 13.6104C216.306 14.3327 216.524 15.2083 216.524 16.2373V27H213.481L213.185 24.2393C212.64 25.3971 211.942 26.1982 211.091 26.6436C210.25 27.0789 209.285 27.2969 208.196 27.2969C207.217 27.2969 206.336 27.119 205.554 26.7627C204.782 26.3966 204.174 25.8768 203.729 25.2041C203.293 24.5212 203.075 23.6945 203.075 22.7246C203.075 21.0325 203.683 19.7555 204.9 18.8945C206.128 18.0335 208.078 17.5835 210.75 17.5439L213.051 17.4844V16.4453C213.051 15.6338 212.808 15.0001 212.323 14.5449C211.848 14.0799 211.106 13.8524 210.097 13.8623C209.345 13.8722 208.661 14.0501 208.048 14.3965C207.434 14.7329 207.029 15.3022 206.831 16.1035H203.758C203.817 15.0548 204.119 14.1791 204.663 13.4766C205.217 12.764 205.975 12.2341 206.935 11.8877C207.895 11.5315 209.003 11.3535 210.26 11.3535ZM229.108 7.99902H226.971C226.387 7.99902 225.986 8.15231 225.769 8.45898C225.551 8.75587 225.441 9.2259 225.441 9.86914V11.6504H231.542L232.447 7.09277H235.045V11.6357H238.475V14.2041H235.045L235.061 23.0068C235.061 23.462 235.11 23.7989 235.209 24.0166C235.318 24.2242 235.486 24.3624 235.714 24.4316C235.951 24.4909 236.263 24.5205 236.648 24.5205H238.549V26.8066C238.341 26.8858 238.034 26.9553 237.628 27.0146C237.232 27.0839 236.703 27.1191 236.04 27.1191C234.823 27.1191 233.878 26.9601 233.205 26.6436C232.542 26.317 232.082 25.8565 231.824 25.2627C231.567 24.669 231.439 23.9618 231.438 23.1406V14.2041H225.501V27H221.894V14.2041H218.865V11.6504H221.894V9.36426C221.894 8.1372 222.23 7.19232 222.903 6.5293C223.586 5.86626 224.571 5.53418 225.857 5.53418H229.094L229.108 7.99902ZM102.071 8.59277H91.709V14.7676H100.854V17.7812H91.709V27H88.043V5.53418H102.086L102.071 8.59277ZM141.389 13.877C141.636 13.491 141.963 13.1199 142.369 12.7637C142.775 12.3976 143.27 12.1006 143.854 11.873C144.447 11.6356 145.155 11.5166 145.977 11.5166C146.956 11.5167 147.852 11.705 148.663 12.0811C149.475 12.4571 150.123 13.0014 150.607 13.7139C151.092 14.4165 151.335 15.2577 151.335 16.2373V27H147.713V16.8467C147.713 16.0552 147.431 15.4413 146.867 15.0059C146.313 14.5704 145.61 14.3525 144.759 14.3525C144.195 14.3526 143.655 14.4515 143.141 14.6494C142.626 14.8473 142.21 15.1442 141.894 15.54C141.587 15.926 141.434 16.4113 141.434 16.9951V27H137.826V4.94043H141.389V13.877ZM190.04 13.877C190.287 13.491 190.615 13.1199 191.021 12.7637C191.426 12.3976 191.921 12.1006 192.505 11.873C193.098 11.6357 193.806 11.5166 194.627 11.5166C195.607 11.5166 196.503 11.705 197.314 12.0811C198.126 12.4571 198.774 13.0014 199.259 13.7139C199.744 14.4165 199.986 15.2577 199.986 16.2373V27H196.364V16.8467C196.364 16.0552 196.082 15.4413 195.519 15.0059C194.964 14.5704 194.261 14.3525 193.41 14.3525C192.846 14.3525 192.307 14.4515 191.792 14.6494C191.277 14.8473 190.862 15.1442 190.545 15.54C190.238 15.926 190.085 16.4113 190.085 16.9951V27H186.478V4.94043H190.04V13.877ZM112.559 19.5186C111.628 19.5285 110.811 19.6274 110.108 19.8154C109.416 20.0035 108.876 20.3051 108.49 20.7207C108.104 21.1264 107.912 21.6708 107.912 22.3535C107.912 23.1353 108.184 23.749 108.729 24.1943C109.273 24.6296 109.95 24.8476 110.762 24.8477C111.207 24.8477 111.648 24.7686 112.083 24.6104C112.518 24.4421 112.91 24.2194 113.256 23.9424C113.612 23.6555 113.894 23.3384 114.102 22.9922C114.319 22.6458 114.433 22.2843 114.443 21.9082V19.4883L112.559 19.5186ZM211.165 19.5186C210.235 19.5285 209.418 19.6274 208.716 19.8154C208.023 20.0035 207.484 20.3051 207.098 20.7207C206.712 21.1264 206.519 21.6708 206.519 22.3535C206.519 23.1352 206.791 23.749 207.335 24.1943C207.879 24.6298 208.558 24.8477 209.369 24.8477C209.814 24.8477 210.255 24.7687 210.69 24.6104C211.126 24.4421 211.517 24.2195 211.863 23.9424C212.219 23.6555 212.501 23.3385 212.709 22.9922C212.927 22.6458 213.041 22.2843 213.051 21.9082V19.4883L211.165 19.5186Z" fill="#207044"/>
</svg>
